<?xml version="1.0" encoding="utf-8"?>
<!-- Generator: Adobe Illustrator 15.0.0, SVG Export Plug-In . SVG Version: 6.00 Build 0)  -->
<!DOCTYPE svg PUBLIC "-//W3C//DTD SVG 1.1//EN" "http://www.w3.org/Graphics/SVG/1.1/DTD/svg11.dtd">
<svg version="1.1" id="Layer_1" xmlns="http://www.w3.org/2000/svg" xmlns:xlink="http://www.w3.org/1999/xlink" x="0px" y="0px"
	 width="217px" height="93px" viewBox="0 0 217 93" enable-background="new 0 0 217 93" xml:space="preserve">
<line fill="none" stroke="#1FCDE5" stroke-width="7" stroke-miterlimit="10" x1="8" y1="80.5" x2="105" y2="80.5"/>
<g>
	<path d="M21.337,20.539v12.24h16.488v9H21.337v12.492h21.527v9.36H9.097V11.178h33.768v9.36H21.337z"/>
	<path d="M60.217,9.738v53.893h-11.16V9.738H60.217z"/>
	<path d="M76.957,46.963c0.36,3.119,1.308,5.381,2.844,6.785s3.516,2.106,5.94,2.106c1.296,0,2.412-0.155,3.348-0.468
		c0.937-0.312,1.77-0.66,2.502-1.045c0.732-0.383,1.404-0.731,2.017-1.043c0.611-0.312,1.254-0.469,1.926-0.469
		c0.888,0,1.56,0.324,2.016,0.973l3.24,3.996c-1.152,1.32-2.394,2.394-3.726,3.222c-1.332,0.827-2.7,1.476-4.104,1.944
		c-1.404,0.467-2.808,0.791-4.212,0.972c-1.404,0.18-2.742,0.271-4.014,0.271c-2.616,0-5.07-0.428-7.362-1.279
		s-4.297-2.117-6.012-3.797c-1.717-1.68-3.072-3.768-4.068-6.265c-0.996-2.495-1.494-5.399-1.494-8.712
		c0-2.496,0.426-4.86,1.278-7.092c0.852-2.232,2.075-4.188,3.672-5.868c1.596-1.68,3.528-3.012,5.796-3.996
		c2.269-0.984,4.83-1.476,7.687-1.476c2.472,0,4.733,0.384,6.785,1.152c2.053,0.768,3.816,1.884,5.292,3.348
		c1.477,1.464,2.629,3.258,3.456,5.382c0.828,2.124,1.242,4.53,1.242,7.218c0,0.84-0.036,1.524-0.107,2.053
		c-0.072,0.527-0.204,0.947-0.396,1.26s-0.45,0.527-0.773,0.647c-0.324,0.12-0.738,0.181-1.242,0.181H76.957z M90.997,40.482
		c0-0.888-0.114-1.751-0.342-2.592c-0.229-0.839-0.601-1.589-1.116-2.25c-0.517-0.66-1.194-1.193-2.034-1.602
		s-1.86-0.612-3.06-0.612c-2.112,0-3.769,0.606-4.968,1.818c-1.201,1.212-1.993,2.958-2.377,5.238H90.997z"/>
	<path d="M134.016,35.154c-0.336,0.409-0.66,0.732-0.973,0.972c-0.312,0.24-0.756,0.36-1.332,0.36c-0.553,0-1.051-0.131-1.494-0.396
		c-0.443-0.264-0.941-0.558-1.494-0.882c-0.553-0.324-1.199-0.618-1.943-0.882c-0.744-0.264-1.668-0.396-2.771-0.396
		c-1.369,0-2.551,0.252-3.547,0.756c-0.996,0.504-1.818,1.224-2.465,2.16c-0.648,0.936-1.129,2.083-1.441,3.438
		c-0.312,1.356-0.467,2.886-0.467,4.591c0,3.576,0.689,6.324,2.068,8.243c1.381,1.921,3.283,2.88,5.707,2.88
		c1.297,0,2.322-0.162,3.078-0.486c0.756-0.323,1.398-0.684,1.926-1.08c0.527-0.396,1.014-0.761,1.459-1.098
		c0.443-0.336,1-0.504,1.674-0.504c0.887,0,1.559,0.324,2.016,0.973l3.24,3.996c-1.152,1.32-2.365,2.394-3.637,3.222
		c-1.271,0.827-2.574,1.476-3.906,1.944c-1.332,0.467-2.67,0.791-4.014,0.972c-1.344,0.18-2.652,0.271-3.924,0.271
		c-2.281,0-4.459-0.433-6.533-1.297c-2.078-0.863-3.9-2.117-5.473-3.762c-1.572-1.644-2.82-3.666-3.744-6.066
		c-0.924-2.399-1.386-5.135-1.386-8.207c0-2.688,0.401-5.203,1.206-7.542c0.803-2.34,1.993-4.368,3.565-6.084
		c1.57-1.716,3.516-3.066,5.832-4.05c2.314-0.984,4.996-1.476,8.045-1.476c2.928,0,5.496,0.468,7.705,1.404
		c2.207,0.936,4.199,2.304,5.975,4.104L134.016,35.154z"/>
	<path d="M154.967,64.207c-1.777,0-3.342-0.259-4.697-0.775c-1.357-0.516-2.498-1.247-3.422-2.195
		c-0.924-0.947-1.625-2.094-2.105-3.438s-0.719-2.844-0.719-4.5V34.002h-3.168c-0.576,0-1.068-0.186-1.477-0.558
		c-0.408-0.372-0.613-0.918-0.613-1.638V27.45l5.941-1.152l2.195-9.108c0.289-1.152,1.104-1.728,2.447-1.728h5.832v10.908h9.252
		v7.632h-9.252v18.541c0,0.863,0.211,1.578,0.631,2.142s1.025,0.846,1.818,0.846c0.408,0,0.75-0.042,1.025-0.126
		s0.516-0.18,0.721-0.288c0.203-0.108,0.396-0.204,0.576-0.288s0.389-0.126,0.629-0.126c0.336,0,0.605,0.079,0.811,0.234
		c0.203,0.156,0.414,0.401,0.631,0.737l3.383,5.293c-1.439,1.08-3.061,1.89-4.859,2.43
		C158.746,63.937,156.887,64.207,154.967,64.207z"/>
	<path d="M186.467,25.722c2.83,0,5.41,0.444,7.738,1.332c2.328,0.888,4.326,2.16,5.994,3.816c1.668,1.656,2.965,3.666,3.889,6.03
		c0.924,2.364,1.387,5.022,1.387,7.975c0,2.976-0.463,5.658-1.387,8.045c-0.924,2.389-2.221,4.416-3.889,6.084
		c-1.668,1.669-3.666,2.953-5.994,3.853s-4.908,1.351-7.738,1.351c-2.857,0-5.455-0.451-7.795-1.351s-4.355-2.184-6.047-3.853
		c-1.693-1.668-3.002-3.695-3.926-6.084c-0.924-2.387-1.385-5.069-1.385-8.045c0-2.953,0.461-5.61,1.385-7.975
		c0.924-2.364,2.232-4.374,3.926-6.03c1.691-1.656,3.707-2.928,6.047-3.816C181.012,26.167,183.609,25.722,186.467,25.722z
		 M186.467,55.926c2.566,0,4.457-0.905,5.67-2.717c1.211-1.812,1.816-4.566,1.816-8.263c0-3.695-0.605-6.444-1.816-8.244
		c-1.213-1.8-3.104-2.7-5.67-2.7c-2.641,0-4.572,0.9-5.797,2.7c-1.225,1.8-1.836,4.549-1.836,8.244c0,3.696,0.611,6.45,1.836,8.263
		C181.895,55.021,183.826,55.926,186.467,55.926z"/>
</g>
</svg>
